<svg width="78" height="78" viewBox="0 0 78 78" fill="none" xmlns="http://www.w3.org/2000/svg">
<g filter="url(#filter0_d_2265_2330)">
<ellipse cx="39.2301" cy="38.8857" rx="28.3053" ry="27.1406" fill="#252525"/>
<g filter="url(#filter1_i_2265_2330)">
<path d="M38.9719 78C60.4955 78 77.9438 61.2696 77.9438 40.6316H0C0 61.2696 17.4483 78 38.9719 78Z" fill="#F8F8F8"/>
</g>
<path d="M76.9294 41.6318C76.3764 61.2181 59.6325 76.9997 38.9719 76.9997C18.3113 76.9997 1.56734 61.2181 1.01435 41.6318H76.9294Z" stroke="#252525" stroke-width="2"/>
<g filter="url(#filter2_i_2265_2330)">
<path d="M38.9719 0C17.4483 0 0 16.7304 0 37.3684H77.9438C77.9438 16.7304 60.4955 0 38.9719 0Z" fill="#FF4C41"/>
</g>
<path d="M76.9294 36.3681H1.01435C1.56734 16.7819 18.3113 1.00025 38.9719 1.00025C59.6325 1.00025 76.3764 16.7819 76.9294 36.3681Z" stroke="#252525" stroke-width="2"/>
<path d="M49.9823 38.8857C49.9823 44.5178 45.2084 49.1544 39.2301 49.1544C33.2518 49.1544 28.4779 44.5178 28.4779 38.8857C28.4779 33.2537 33.2518 28.617 39.2301 28.617C45.2084 28.617 49.9823 33.2537 49.9823 38.8857Z" fill="#F8F8F8" stroke="#252525" stroke-width="2"/>
<g filter="url(#filter3_d_2265_2330)">
<ellipse cx="39.3129" cy="38.9651" rx="5.87624" ry="5.63446" fill="#F8F8F8"/>
<path d="M44.689 38.9651C44.689 41.7811 42.302 44.0994 39.3129 44.0994C36.3237 44.0994 33.9367 41.7811 33.9367 38.9651C33.9367 36.1491 36.3237 33.8307 39.3129 33.8307C42.302 33.8307 44.689 36.1491 44.689 38.9651Z" stroke="#252525"/>
</g>
<path d="M15.784 17.0168C15.784 17.0168 23.1594 11.957 27.3108 8.11802C28.2516 7.24798 29.246 6.5143 29.6714 5.84462C30.4453 4.62654 27.2554 5.47052 25.8306 5.95462C20.4455 7.78442 14.6028 12.0664 12.1304 16.9094C11.456 18.2305 11.2858 19.3939 12.3033 19.3647C12.9996 19.3448 15.784 17.0168 15.784 17.0168Z" fill="white" fill-opacity="0.8"/>
<path d="M7.49241 21.6912C7.06405 22.9535 7.10762 24.5844 8.37558 24.9359C9.62483 25.2822 10.9485 22.7372 10.9485 22.7372C10.9485 22.7372 12.072 19.966 10.9065 19.4594C10.0218 19.0747 8.01474 20.152 7.49241 21.6912Z" fill="white" fill-opacity="0.8"/>
<path d="M5.03228 28.645C5.05087 29.4085 5.21781 30.0233 5.84476 30.3566C6.9095 30.9227 7.92107 29.0618 7.90999 27.7636C7.90406 27.0684 7.81497 26.5331 7.2975 26.14C6.30908 25.389 4.99998 27.3185 5.03228 28.645Z" fill="white" fill-opacity="0.8"/>
</g>
<defs>
<filter id="filter0_d_2265_2330" x="-4.00099" y="0" width="85.9457" height="86.0019" filterUnits="userSpaceOnUse" color-interpolation-filters="sRGB">
<feFlood flood-opacity="0" result="BackgroundImageFix"/>
<feColorMatrix in="SourceAlpha" type="matrix" values="0 0 0 0 0 0 0 0 0 0 0 0 0 0 0 0 0 0 127 0" result="hardAlpha"/>
<feOffset dy="4"/>
<feGaussianBlur stdDeviation="2"/>
<feComposite in2="hardAlpha" operator="out"/>
<feColorMatrix type="matrix" values="0 0 0 0 0 0 0 0 0 0 0 0 0 0 0 0 0 0 0.25 0"/>
<feBlend mode="normal" in2="BackgroundImageFix" result="effect1_dropShadow_2265_2330"/>
<feBlend mode="normal" in="SourceGraphic" in2="effect1_dropShadow_2265_2330" result="shape"/>
</filter>
<filter id="filter1_i_2265_2330" x="0" y="40.6316" width="77.9438" height="41.3694" filterUnits="userSpaceOnUse" color-interpolation-filters="sRGB">
<feFlood flood-opacity="0" result="BackgroundImageFix"/>
<feBlend mode="normal" in="SourceGraphic" in2="BackgroundImageFix" result="shape"/>
<feColorMatrix in="SourceAlpha" type="matrix" values="0 0 0 0 0 0 0 0 0 0 0 0 0 0 0 0 0 0 127 0" result="hardAlpha"/>
<feOffset dy="4"/>
<feGaussianBlur stdDeviation="2"/>
<feComposite in2="hardAlpha" operator="arithmetic" k2="-1" k3="1"/>
<feColorMatrix type="matrix" values="0 0 0 0 0 0 0 0 0 0 0 0 0 0 0 0 0 0 0.25 0"/>
<feBlend mode="normal" in2="shape" result="effect1_innerShadow_2265_2330"/>
</filter>
<filter id="filter2_i_2265_2330" x="0" y="0" width="77.9438" height="41.3694" filterUnits="userSpaceOnUse" color-interpolation-filters="sRGB">
<feFlood flood-opacity="0" result="BackgroundImageFix"/>
<feBlend mode="normal" in="SourceGraphic" in2="BackgroundImageFix" result="shape"/>
<feColorMatrix in="SourceAlpha" type="matrix" values="0 0 0 0 0 0 0 0 0 0 0 0 0 0 0 0 0 0 127 0" result="hardAlpha"/>
<feOffset dy="4"/>
<feGaussianBlur stdDeviation="2"/>
<feComposite in2="hardAlpha" operator="arithmetic" k2="-1" k3="1"/>
<feColorMatrix type="matrix" values="0 0 0 0 0 0 0 0 0 0 0 0 0 0 0 0 0 0 0.25 0"/>
<feBlend mode="normal" in2="shape" result="effect1_innerShadow_2265_2330"/>
</filter>
<filter id="filter3_d_2265_2330" x="29.4356" y="33.3306" width="19.7545" height="19.2709" filterUnits="userSpaceOnUse" color-interpolation-filters="sRGB">
<feFlood flood-opacity="0" result="BackgroundImageFix"/>
<feColorMatrix in="SourceAlpha" type="matrix" values="0 0 0 0 0 0 0 0 0 0 0 0 0 0 0 0 0 0 127 0" result="hardAlpha"/>
<feOffset dy="4"/>
<feGaussianBlur stdDeviation="2"/>
<feComposite in2="hardAlpha" operator="out"/>
<feColorMatrix type="matrix" values="0 0 0 0 0 0 0 0 0 0 0 0 0 0 0 0 0 0 0.25 0"/>
<feBlend mode="normal" in2="BackgroundImageFix" result="effect1_dropShadow_2265_2330"/>
<feBlend mode="normal" in="SourceGraphic" in2="effect1_dropShadow_2265_2330" result="shape"/>
</filter>
</defs>
</svg>
